# xmcd
#
# Track frame offsets: 
#        150
#        16632
#        32015
#        47527
#        65409
#        81997
#        93343
#        107801
#        120739
#        134831
#        151144
#
# Disc length: 2258 seconds
#
# Revision: 0
# Processed by: cddbd v1.5.2PL0 Copyright (c) Steve Scherf et al.
# Submitted via: ExactAudioCopy v1.0b3
#
DISCID=8708d00b
DTITLE=Eddie Rabbitt - ICON
DYEAR=2014
DGENRE=Country
TTITLE0=Step By Step
TTITLE1=I Don't Know Where To Start
TTITLE2=Someone Could Lose A Heart Tonight
TTITLE3=You And I (Featuring Crystal Gayle)
TTITLE4=You Can't Run From Love
TTITLE5=B-B-B-Burning Up With Love
TTITLE6=The Best Year Of My Life
TTITLE7=Warning Sign
TTITLE8=She's Comin' Back To Say Goodbye
TTITLE9=On Second Thought
TTITLE10=Runnin' With The Wind
EXTD=
EXTT0=
EXTT1=
EXTT2=
EXTT3=
EXTT4=
EXTT5=
EXTT6=
EXTT7=
EXTT8=
EXTT9=
EXTT10=
PLAYORDER=
